<?xml version="1.0" encoding="UTF-8" ?>
<svg version="1.1" width="60" height="60" xmlns="http://www.w3.org/2000/svg" shape-rendering="crispEdges">
<rect x="29" y="0" width="1" height="1" fill="#F2EE97" opacity="0.423529" />
<rect x="28" y="1" width="1" height="1" fill="#F2EE97" opacity="0.423529" />
<rect x="29" y="1" width="1" height="1" fill="#F4EF88" opacity="0.549020" />
<rect x="30" y="1" width="1" height="2" fill="#F2EE97" opacity="0.423529" />
<rect x="27" y="2" width="1" height="2" fill="#F2EE97" opacity="0.423529" />
<rect x="28" y="2" width="1" height="1" fill="#F3EF8C" opacity="0.968627" />
<rect x="29" y="2" width="1" height="1" fill="#F3EF89" opacity="0.858824" />
<rect x="28" y="3" width="1" height="3" fill="#E9E359" opacity="0.996078" />
<rect x="29" y="3" width="1" height="1" fill="#F3EF8D" opacity="0.886275" />
<rect x="29" y="4" width="1" height="1" fill="#F3EF8C" opacity="0.894118" />
<rect x="29" y="5" width="1" height="1" fill="#F3EF8D" opacity="0.976471" />
<rect x="27" y="6" width="1" height="1" fill="#FBF236" opacity="0.333333" />
<rect x="28" y="6" width="1" height="2" fill="#E9E359" opacity="0.988235" />
<rect x="29" y="6" width="1" height="1" fill="#F3EE8D" opacity="0.980392" />
<rect x="26" y="7" width="1" height="1" fill="#F2EE97" opacity="0.423529" />
<rect x="27" y="7" width="1" height="1" fill="#F1EDAA" opacity="0.643137" />
<rect x="29" y="7" width="1" height="1" fill="#F2EE8E" opacity="0.984314" />
<rect x="30" y="7" width="1" height="1" fill="#F4EE7E" opacity="0.627451" />
<rect x="31" y="7" width="1" height="1" fill="#F4EF87" opacity="0.666667" />
<rect x="32" y="7" width="1" height="1" fill="#F2EE97" opacity="0.552941" />
<rect x="33" y="7" width="1" height="1" fill="#F0EDB0" opacity="0.443137" />
<rect x="34" y="7" width="1" height="1" fill="#EDECD9" opacity="0.333333" />
<rect x="22" y="8" width="1" height="1" fill="#F6F06C" opacity="0.207843" />
<rect x="23" y="8" width="1" height="1" fill="#F4EF87" opacity="0.392157" />
<rect x="24" y="8" width="1" height="1" fill="#EFEDB8" opacity="0.552941" />
<rect x="25" y="8" width="1" height="1" fill="#F1ED9C" opacity="0.643137" />
<rect x="26" y="8" width="1" height="1" fill="#F1ED9D" opacity="0.733333" />
<rect x="27" y="8" width="1" height="1" fill="#E6E28A" opacity="0.803922" />
<rect x="28" y="8" width="1" height="1" fill="#E7E259" opacity="0.992157" />
<rect x="29" y="8" width="2" height="1" fill="#E9E35A" />
<rect x="31" y="8" width="1" height="1" fill="#EBE55B" opacity="0.976471" />
<rect x="32" y="8" width="1" height="1" fill="#EAE55C" opacity="0.968627" />
<rect x="33" y="8" width="1" height="1" fill="#EAE45D" opacity="0.956863" />
<rect x="34" y="8" width="1" height="1" fill="#EAE45D" opacity="0.949020" />
<rect x="35" y="8" width="1" height="1" fill="#F0EDAC" opacity="0.545098" />
<rect x="36" y="8" width="1" height="1" fill="#EFEDB8" opacity="0.552941" />
<rect x="21" y="9" width="1" height="1" fill="#F5EF77" opacity="0.356863" />
<rect x="22" y="9" width="1" height="1" fill="#F1EEA2" opacity="0.541176" />
<rect x="23" y="9" width="1" height="1" fill="#F2EE9A" opacity="0.686275" />
<rect x="24" y="9" width="1" height="1" fill="#E6E28A" opacity="0.768627" />
<rect x="25" y="9" width="1" height="1" fill="#E2DE87" opacity="0.839216" />
<rect x="26" y="9" width="1" height="1" fill="#E8E25B" opacity="0.980392" />
<rect x="27" y="9" width="2" height="1" fill="#E8E25C" opacity="0.988235" />
<rect x="29" y="9" width="2" height="1" fill="#E9E359" />
<rect x="31" y="9" width="1" height="1" fill="#E5E059" />
<rect x="32" y="9" width="2" height="1" fill="#D1CC6A" opacity="0.984314" />
<rect x="34" y="9" width="1" height="1" fill="#E5E059" opacity="0.996078" />
<rect x="35" y="9" width="1" height="1" fill="#EAE55D" opacity="0.964706" />
<rect x="36" y="9" width="1" height="1" fill="#EAE55D" opacity="0.968627" />
<rect x="37" y="9" width="1" height="1" fill="#F2EE9A" opacity="0.776471" />
<rect x="21" y="10" width="1" height="1" fill="#F3EE8D" opacity="0.635294" />
<rect x="22" y="10" width="1" height="1" fill="#F2EE96" opacity="0.788235" />
<rect x="23" y="10" width="1" height="1" fill="#E3DF7F" opacity="0.847059" />
<rect x="24" y="10" width="1" height="1" fill="#E8E25A" opacity="0.984314" />
<rect x="25" y="10" width="1" height="1" fill="#E8E259" opacity="0.980392" />
<rect x="26" y="10" width="1" height="1" fill="#E8E259" opacity="0.976471" />
<rect x="27" y="10" width="2" height="1" fill="#E5DF6F" opacity="0.819608" />
<rect x="29" y="10" width="2" height="1" fill="#E9E35A" />
<rect x="31" y="10" width="1" height="1" fill="#EFE968" opacity="0.647059" />
<rect x="34" y="10" width="1" height="1" fill="#D0CB68" opacity="0.972549" />
<rect x="35" y="10" width="1" height="1" fill="#D1CC6A" opacity="0.980392" />
<rect x="36" y="10" width="1" height="1" fill="#EBE55D" opacity="0.980392" />
<rect x="37" y="10" width="1" height="1" fill="#EBE55E" opacity="0.992157" />
<rect x="38" y="10" width="1" height="1" fill="#F1EDA9" opacity="0.886275" />
<rect x="20" y="11" width="1" height="1" fill="#F2EE93" opacity="0.647059" />
<rect x="21" y="11" width="1" height="1" fill="#F2EE8F" opacity="0.835294" />
<rect x="22" y="11" width="1" height="1" fill="#E7E25A" opacity="0.988235" />
<rect x="23" y="11" width="1" height="1" fill="#E8E259" opacity="0.988235" />
<rect x="24" y="11" width="1" height="1" fill="#E8E257" opacity="0.976471" />
<rect x="25" y="11" width="1" height="1" fill="#EAE352" opacity="0.643137" />
<rect x="29" y="11" width="1" height="2" fill="#E9E35A" opacity="0.996078" />
<rect x="30" y="11" width="1" height="1" fill="#E9E359" opacity="0.996078" />
<rect x="35" y="11" width="1" height="1" fill="#D0CB68" opacity="0.960784" />
<rect x="36" y="11" width="1" height="1" fill="#D1CB67" opacity="0.972549" />
<rect x="37" y="11" width="1" height="1" fill="#E5E059" />
<rect x="38" y="11" width="1" height="1" fill="#EBE55E" opacity="0.992157" />
<rect x="18" y="12" width="1" height="1" fill="#F4EF82" opacity="0.415686" />
<rect x="19" y="12" width="1" height="1" fill="#F2EE95" opacity="0.670588" />
<rect x="20" y="12" width="1" height="1" fill="#EAE55D" opacity="0.976471" />
<rect x="21" y="12" width="1" height="1" fill="#E8E25A" opacity="0.980392" />
<rect x="22" y="12" width="1" height="1" fill="#E8E258" opacity="0.972549" />
<rect x="23" y="12" width="1" height="1" fill="#E7E15B" opacity="0.670588" />
<rect x="24" y="12" width="1" height="1" fill="#F1EA54" opacity="0.486275" />
<rect x="30" y="12" width="1" height="1" fill="#E7E259" opacity="0.984314" />
<rect x="36" y="12" width="1" height="1" fill="#FBF236" opacity="0.109804" />
<rect x="37" y="12" width="1" height="1" fill="#D1CB67" opacity="0.972549" />
<rect x="38" y="12" width="1" height="1" fill="#E5E059" />
<rect x="39" y="12" width="1" height="1" fill="#F2EE96" opacity="0.960784" />
<rect x="17" y="13" width="1" height="1" fill="#FBF236" opacity="0.333333" />
<rect x="18" y="13" width="1" height="1" fill="#F2EE94" opacity="0.701961" />
<rect x="19" y="13" width="1" height="1" fill="#E8E25A" opacity="0.976471" />
<rect x="20" y="13" width="1" height="1" fill="#E8E259" opacity="0.976471" />
<rect x="21" y="13" width="1" height="1" fill="#E8E261" opacity="0.717647" />
<rect x="22" y="13" width="1" height="1" fill="#EBE459" opacity="0.545098" />
<rect x="29" y="13" width="1" height="1" fill="#E9E359" />
<rect x="30" y="13" width="1" height="1" fill="#E7E158" />
<rect x="31" y="13" width="1" height="6" fill="#E4DE51" opacity="0.356863" />
<rect x="38" y="13" width="1" height="1" fill="#E5E059" opacity="0.996078" />
<rect x="39" y="13" width="1" height="2" fill="#E5E059" />
<rect x="40" y="13" width="1" height="1" fill="#F1ED9F" opacity="0.811765" />
<rect x="17" y="14" width="1" height="1" fill="#F3EE8E" opacity="0.690196" />
<rect x="18" y="14" width="1" height="1" fill="#E8E259" opacity="0.972549" />
<rect x="19" y="14" width="1" height="1" fill="#E8E258" opacity="0.976471" />
<rect x="20" y="14" width="1" height="1" fill="#E9E25B" opacity="0.674510" />
<rect x="28" y="14" width="1" height="4" fill="#E4DE51" opacity="0.356863" />
<rect x="29" y="14" width="1" height="1" fill="#EFEB81" opacity="0.992157" />
<rect x="30" y="14" width="1" height="1" fill="#E9E35A" opacity="0.996078" />
<rect x="38" y="14" width="1" height="1" fill="#FAF140" opacity="0.478431" />
<rect x="40" y="14" width="1" height="1" fill="#EBE55E" opacity="0.988235" />
<rect x="41" y="14" width="1" height="1" fill="#EFEDB6" opacity="0.745098" />
<rect x="16" y="15" width="1" height="1" fill="#F6F06C" opacity="0.501961" />
<rect x="17" y="15" width="1" height="1" fill="#E3DD69" opacity="0.701961" />
<rect x="18" y="15" width="1" height="1" fill="#E8E258" opacity="0.976471" />
<rect x="19" y="15" width="1" height="1" fill="#E4DE5A" opacity="0.674510" />
<rect x="29" y="15" width="1" height="1" fill="#E8E258" opacity="0.968627" />
<rect x="30" y="15" width="1" height="1" fill="#F0EC8A" opacity="0.862745" />
<rect x="38" y="15" width="1" height="1" fill="#FBF236" opacity="0.368627" />
<rect x="39" y="15" width="1" height="1" fill="#D1CC67" opacity="0.984314" />
<rect x="40" y="15" width="1" height="2" fill="#E5E059" />
<rect x="41" y="15" width="1" height="1" fill="#F1EEA0" opacity="0.819608" />
<rect x="42" y="15" width="1" height="1" fill="#EFEDB8" opacity="0.517647" />
<rect x="16" y="16" width="1" height="1" fill="#EBE45A" opacity="0.427451" />
<rect x="17" y="16" width="1" height="1" fill="#E4DE5E" opacity="0.647059" />
<rect x="18" y="16" width="1" height="1" fill="#E1DB61" opacity="0.623529" />
<rect x="29" y="16" width="1" height="1" fill="#E8E257" opacity="0.956863" />
<rect x="30" y="16" width="1" height="1" fill="#F0EC89" opacity="0.870588" />
<rect x="39" y="16" width="1" height="1" fill="#F8F151" opacity="0.564706" />
<rect x="41" y="16" width="1" height="1" fill="#EAE55F" opacity="0.988235" />
<rect x="42" y="16" width="1" height="1" fill="#EFEDBD" opacity="0.627451" />
<rect x="16" y="17" width="1" height="1" fill="#FBF236" opacity="0.219608" />
<rect x="17" y="17" width="1" height="1" fill="#E1DB54" opacity="0.396078" />
<rect x="29" y="17" width="1" height="1" fill="#EFEB81" opacity="0.988235" />
<rect x="30" y="17" width="1" height="2" fill="#F0EC8A" opacity="0.862745" />
<rect x="40" y="17" width="1" height="1" fill="#D1CC6A" opacity="0.988235" />
<rect x="41" y="17" width="1" height="1" fill="#EBE55D" opacity="0.980392" />
<rect x="42" y="17" width="1" height="2" fill="#EAE45C" opacity="0.945098" />
<rect x="29" y="18" width="1" height="1" fill="#E8E257" opacity="0.933333" />
<rect x="40" y="18" width="1" height="1" fill="#E6E069" opacity="0.635294" />
<rect x="41" y="18" width="1" height="1" fill="#F3EE8B" opacity="0.850980" />
<rect x="43" y="18" width="1" height="7" fill="#F1EEA0" opacity="0.819608" />
<rect x="29" y="19" width="1" height="1" fill="#ECE672" opacity="0.921569" />
<rect x="30" y="19" width="1" height="2" fill="#EFEB81" opacity="0.984314" />
<rect x="41" y="19" width="1" height="1" fill="#E4DF7F" opacity="0.607843" />
<rect x="42" y="19" width="1" height="4" fill="#EAE45A" opacity="0.941176" />
<rect x="29" y="20" width="1" height="1" fill="#ECE772" opacity="0.933333" />
<rect x="35" y="20" width="2" height="1" fill="#E3DF82" opacity="0.392157" />
<rect x="37" y="20" width="1" height="2" fill="#E1DC54" opacity="0.878431" />
<rect x="38" y="20" width="1" height="1" fill="#E3DF82" opacity="0.392157" />
<rect x="41" y="20" width="1" height="1" fill="#E6E06F" opacity="0.584314" />
<rect x="29" y="21" width="1" height="1" fill="#EFEB84" opacity="0.917647" />
<rect x="30" y="21" width="1" height="1" fill="#E8E255" opacity="0.949020" />
<rect x="34" y="21" width="1" height="1" fill="#E3DF82" opacity="0.392157" />
<rect x="35" y="21" width="1" height="1" fill="#E2DD66" opacity="0.952941" />
<rect x="36" y="21" width="1" height="1" fill="#E1DC54" opacity="0.878431" />
<rect x="38" y="21" width="1" height="1" fill="#E1DC54" opacity="0.878431" />
<rect x="28" y="22" width="1" height="1" fill="#E6E16D" opacity="0.552941" />
<rect x="29" y="22" width="1" height="1" fill="#E4DF5B" opacity="0.749020" />
<rect x="30" y="22" width="2" height="1" fill="#E8E255" opacity="0.964706" />
<rect x="32" y="22" width="1" height="1" fill="#E1DC54" opacity="0.878431" />
<rect x="33" y="22" width="1" height="1" fill="#E1DD67" opacity="0.925490" />
<rect x="34" y="22" width="1" height="1" fill="#E2DD66" opacity="0.952941" />
<rect x="35" y="22" width="1" height="1" fill="#E1DC54" opacity="0.984314" />
<rect x="36" y="22" width="1" height="1" fill="#E3DE69" opacity="0.654902" />
<rect x="37" y="22" width="2" height="1" fill="#E3DF82" opacity="0.392157" />
<rect x="27" y="23" width="1" height="1" fill="#E3DF82" opacity="0.392157" />
<rect x="28" y="23" width="1" height="1" fill="#E3DE69" opacity="0.654902" />
<rect x="29" y="23" width="1" height="1" fill="#E8E257" opacity="0.980392" />
<rect x="30" y="23" width="1" height="2" fill="#E8E255" />
<rect x="31" y="23" width="1" height="1" fill="#E8E255" opacity="0.980392" />
<rect x="32" y="23" width="1" height="2" fill="#E8E255" opacity="0.976471" />
<rect x="33" y="23" width="1" height="1" fill="#E8E255" opacity="0.964706" />
<rect x="34" y="23" width="1" height="1" fill="#E1DC54" opacity="0.878431" />
<rect x="35" y="23" width="1" height="1" fill="#E3DE75" opacity="0.792157" />
<rect x="36" y="23" width="2" height="1" fill="#E3DF82" opacity="0.392157" />
<rect x="42" y="23" width="1" height="1" fill="#EAE457" opacity="0.992157" />
<rect x="26" y="24" width="1" height="1" fill="#E2DC5A" opacity="0.490196" />
<rect x="27" y="24" width="1" height="1" fill="#E8E257" opacity="0.956863" />
<rect x="28" y="24" width="1" height="1" fill="#E8E257" opacity="0.976471" />
<rect x="29" y="24" width="1" height="1" fill="#E8E255" opacity="0.988235" />
<rect x="31" y="24" width="1" height="1" fill="#E8E255" opacity="0.992157" />
<rect x="33" y="24" width="1" height="1" fill="#E3DE69" opacity="0.654902" />
<rect x="34" y="24" width="1" height="1" fill="#E3DE75" opacity="0.792157" />
<rect x="35" y="24" width="1" height="1" fill="#E3DF82" opacity="0.392157" />
<rect x="41" y="24" width="1" height="1" fill="#E8E379" opacity="0.835294" />
<rect x="42" y="24" width="1" height="1" fill="#EBE558" opacity="0.949020" />
<rect x="23" y="25" width="1" height="1" fill="#DBD557" opacity="0.411765" />
<rect x="24" y="25" width="1" height="1" fill="#E8E255" opacity="0.941176" />
<rect x="25" y="25" width="1" height="1" fill="#E8E255" opacity="0.952941" />
<rect x="26" y="25" width="1" height="1" fill="#E8E255" opacity="0.968627" />
<rect x="27" y="25" width="1" height="1" fill="#E8E255" opacity="0.980392" />
<rect x="28" y="25" width="3" height="1" fill="#E1DC54" opacity="0.878431" />
<rect x="31" y="25" width="1" height="1" fill="#E2DC4F" opacity="0.807843" />
<rect x="32" y="25" width="1" height="1" fill="#DBD559" opacity="0.741176" />
<rect x="33" y="25" width="1" height="1" fill="#E3DF82" opacity="0.392157" />
<rect x="41" y="25" width="1" height="1" fill="#E9E369" opacity="0.811765" />
<rect x="42" y="25" width="1" height="1" fill="#EBE457" opacity="0.941176" />
<rect x="43" y="25" width="1" height="1" fill="#F9F14A" opacity="0.254902" />
<rect x="23" y="26" width="1" height="1" fill="#DBD556" opacity="0.603922" />
<rect x="24" y="26" width="1" height="1" fill="#E7E155" opacity="0.968627" />
<rect x="25" y="26" width="2" height="1" fill="#E8E255" opacity="0.964706" />
<rect x="27" y="26" width="1" height="1" fill="#DFD955" opacity="0.713725" />
<rect x="28" y="26" width="1" height="1" fill="#DFD95A" opacity="0.737255" />
<rect x="29" y="26" width="1" height="2" fill="#D0CB6A" opacity="0.321569" />
<rect x="30" y="26" width="1" height="1" fill="#E1DC54" opacity="0.878431" />
<rect x="31" y="26" width="1" height="1" fill="#E4DE4E" opacity="0.827451" />
<rect x="32" y="26" width="1" height="1" fill="#D0CB6A" opacity="0.321569" />
<rect x="40" y="26" width="1" height="1" fill="#E5E06E" opacity="0.690196" />
<rect x="41" y="26" width="1" height="1" fill="#EAE458" opacity="0.968627" />
<rect x="42" y="26" width="1" height="1" fill="#EAE455" opacity="0.933333" />
<rect x="43" y="26" width="1" height="1" fill="#F8F14B" opacity="0.207843" />
<rect x="15" y="27" width="2" height="1" fill="#E4DE61" opacity="0.407843" />
<rect x="22" y="27" width="1" height="1" fill="#CFCA69" opacity="0.321569" />
<rect x="23" y="27" width="1" height="1" fill="#E8E254" />
<rect x="24" y="27" width="1" height="1" fill="#E8E255" opacity="0.949020" />
<rect x="25" y="27" width="1" height="1" fill="#E3DD4C" opacity="0.490196" />
<rect x="26" y="27" width="1" height="1" fill="#DFD952" opacity="0.415686" />
<rect x="30" y="27" width="1" height="1" fill="#E8E258" opacity="0.968627" />
<rect x="31" y="27" width="1" height="1" fill="#E5DF50" opacity="0.768627" />
<rect x="40" y="27" width="1" height="1" fill="#E3DD6C" opacity="0.768627" />
<rect x="41" y="27" width="1" height="1" fill="#EAE457" opacity="0.949020" />
<rect x="42" y="27" width="1" height="1" fill="#F3EC55" opacity="0.392157" />
<rect x="43" y="27" width="1" height="1" fill="#F8F053" opacity="0.105882" />
<rect x="15" y="28" width="1" height="1" fill="#E4DE61" opacity="0.407843" />
<rect x="16" y="28" width="1" height="1" fill="#E0DB56" opacity="0.964706" />
<rect x="17" y="28" width="1" height="1" fill="#DAD45C" opacity="0.431373" />
<rect x="29" y="28" width="1" height="1" fill="#DFDA66" opacity="0.439216" />
<rect x="30" y="28" width="1" height="1" fill="#E8E259" opacity="0.964706" />
<rect x="31" y="28" width="1" height="1" fill="#E6E059" opacity="0.752941" />
<rect x="39" y="28" width="1" height="1" fill="#DCD772" opacity="0.631373" />
<rect x="40" y="28" width="1" height="1" fill="#E8E258" opacity="0.952941" />
<rect x="41" y="28" width="1" height="1" fill="#EAE457" opacity="0.941176" />
<rect x="42" y="28" width="1" height="1" fill="#F3EB55" opacity="0.294118" />
<rect x="15" y="29" width="1" height="1" fill="#E0DA67" opacity="0.596078" />
<rect x="16" y="29" width="1" height="1" fill="#E2DC5D" opacity="0.992157" />
<rect x="17" y="29" width="1" height="1" fill="#DFDA56" opacity="0.956863" />
<rect x="18" y="29" width="1" height="1" fill="#CFCA69" opacity="0.313725" />
<rect x="30" y="29" width="1" height="1" fill="#E8E35A" opacity="0.952941" />
<rect x="31" y="29" width="1" height="1" fill="#E6E164" opacity="0.682353" />
<rect x="39" y="29" width="1" height="1" fill="#DBD666" opacity="0.752941" />
<rect x="40" y="29" width="1" height="1" fill="#E8E257" opacity="0.972549" />
<rect x="41" y="29" width="1" height="1" fill="#EAE455" opacity="0.576471" />
<rect x="16" y="30" width="1" height="1" fill="#E0DA65" opacity="0.827451" />
<rect x="17" y="30" width="1" height="1" fill="#E1DB5A" opacity="0.980392" />
<rect x="18" y="30" width="1" height="1" fill="#E0DB57" opacity="0.949020" />
<rect x="19" y="30" width="1" height="1" fill="#DAD67C" opacity="0.274510" />
<rect x="30" y="30" width="1" height="1" fill="#E9E45A" opacity="0.945098" />
<rect x="31" y="30" width="1" height="1" fill="#E9E47A" opacity="0.580392" />
<rect x="38" y="30" width="1" height="1" fill="#DFDA75" opacity="0.682353" />
<rect x="39" y="30" width="1" height="1" fill="#E8E258" opacity="0.964706" />
<rect x="40" y="30" width="1" height="1" fill="#E8E257" opacity="0.968627" />
<rect x="41" y="30" width="1" height="1" fill="#E6E050" opacity="0.490196" />
<rect x="16" y="31" width="1" height="1" fill="#E6E05D" opacity="0.545098" />
<rect x="17" y="31" width="1" height="1" fill="#E3DE63" opacity="0.670588" />
<rect x="18" y="31" width="1" height="1" fill="#E7E158" />
<rect x="19" y="31" width="1" height="1" fill="#E1DC5B" opacity="0.972549" />
<rect x="20" y="31" width="1" height="1" fill="#E0DC8C" opacity="0.329412" />
<rect x="21" y="31" width="1" height="1" fill="#E0DC91" opacity="0.156863" />
<rect x="29" y="31" width="1" height="1" fill="#D0CB6A" opacity="0.321569" />
<rect x="30" y="31" width="1" height="2" fill="#EAE45A" opacity="0.933333" />
<rect x="31" y="31" width="1" height="1" fill="#EAE688" opacity="0.411765" />
<rect x="36" y="31" width="1" height="1" fill="#F7F062" opacity="0.400000" />
<rect x="37" y="31" width="1" height="1" fill="#E8E372" opacity="0.709804" />
<rect x="38" y="31" width="1" height="1" fill="#E8E258" opacity="0.964706" />
<rect x="39" y="31" width="1" height="1" fill="#E8E257" opacity="0.984314" />
<rect x="40" y="31" width="1" height="1" fill="#E3DD53" opacity="0.725490" />
<rect x="17" y="32" width="1" height="1" fill="#DAD67C" opacity="0.274510" />
<rect x="18" y="32" width="2" height="1" fill="#E4DF61" opacity="0.952941" />
<rect x="20" y="32" width="1" height="1" fill="#E8E25A" opacity="0.956863" />
<rect x="21" y="32" width="1" height="1" fill="#DDD982" opacity="0.439216" />
<rect x="22" y="32" width="1" height="1" fill="#E8E59B" opacity="0.274510" />
<rect x="29" y="32" width="1" height="1" fill="#DAD578" opacity="0.486275" />
<rect x="31" y="32" width="1" height="1" fill="#ECE787" opacity="0.513725" />
<rect x="35" y="32" width="1" height="1" fill="#F8F04E" opacity="0.415686" />
<rect x="36" y="32" width="1" height="1" fill="#E9E368" opacity="0.658824" />
<rect x="37" y="32" width="1" height="1" fill="#E8E258" opacity="0.972549" />
<rect x="38" y="32" width="1" height="1" fill="#E8E257" opacity="0.968627" />
<rect x="39" y="32" width="1" height="1" fill="#E5E076" opacity="0.945098" />
<rect x="18" y="33" width="1" height="1" fill="#DAD67C" opacity="0.274510" />
<rect x="19" y="33" width="1" height="1" fill="#E4DF61" opacity="0.952941" />
<rect x="20" y="33" width="1" height="1" fill="#E4DF61" />
<rect x="21" y="33" width="1" height="1" fill="#E7E15A" opacity="0.968627" />
<rect x="22" y="33" width="1" height="1" fill="#E8E25B" opacity="0.945098" />
<rect x="23" y="33" width="1" height="1" fill="#EBE795" opacity="0.384314" />
<rect x="24" y="33" width="1" height="1" fill="#F0EDA8" opacity="0.286275" />
<rect x="29" y="33" width="1" height="1" fill="#DED978" opacity="0.556863" />
<rect x="30" y="33" width="1" height="1" fill="#EAE45B" opacity="0.945098" />
<rect x="31" y="33" width="1" height="1" fill="#EDE989" opacity="0.650980" />
<rect x="32" y="33" width="1" height="1" fill="#EFE862" opacity="0.635294" />
<rect x="33" y="33" width="1" height="1" fill="#F6EF4E" opacity="0.474510" />
<rect x="34" y="33" width="1" height="1" fill="#F7F052" opacity="0.541176" />
<rect x="35" y="33" width="1" height="1" fill="#F4EF75" opacity="0.666667" />
<rect x="36" y="33" width="2" height="1" fill="#E8E257" opacity="0.972549" />
<rect x="38" y="33" width="1" height="1" fill="#E6E17D" opacity="0.800000" />
<rect x="19" y="34" width="1" height="1" fill="#DAD67C" opacity="0.274510" />
<rect x="20" y="34" width="1" height="1" fill="#E7E063" opacity="0.952941" />
<rect x="21" y="34" width="1" height="1" fill="#E2DC64" opacity="0.901961" />
<rect x="22" y="34" width="1" height="1" fill="#E8E25A" opacity="0.976471" />
<rect x="23" y="34" width="1" height="1" fill="#E8E25B" opacity="0.964706" />
<rect x="24" y="34" width="1" height="1" fill="#E8E45B" opacity="0.949020" />
<rect x="25" y="34" width="1" height="1" fill="#EAE45B" opacity="0.937255" />
<rect x="26" y="34" width="1" height="1" fill="#F2EE8F" opacity="0.545098" />
<rect x="27" y="34" width="1" height="1" fill="#F3EE8A" opacity="0.458824" />
<rect x="28" y="34" width="1" height="1" fill="#F5EF74" opacity="0.474510" />
<rect x="29" y="34" width="1" height="1" fill="#ECE787" opacity="0.552941" />
<rect x="30" y="34" width="1" height="1" fill="#EAE45C" opacity="0.960784" />
<rect x="31" y="34" width="1" height="1" fill="#EAE687" opacity="0.803922" />
<rect x="32" y="34" width="1" height="1" fill="#EFEA7B" opacity="0.752941" />
<rect x="33" y="34" width="1" height="1" fill="#EEE86B" opacity="0.717647" />
<rect x="34" y="34" width="1" height="1" fill="#E8E259" opacity="0.968627" />
<rect x="35" y="34" width="1" height="1" fill="#E8E258" opacity="0.960784" />
<rect x="36" y="34" width="1" height="1" fill="#E7E276" opacity="0.972549" />
<rect x="37" y="34" width="1" height="1" fill="#E6E17D" opacity="0.800000" />
<rect x="21" y="35" width="1" height="1" fill="#E8E155" opacity="0.733333" />
<rect x="22" y="35" width="1" height="1" fill="#E4DE62" opacity="0.776471" />
<rect x="23" y="35" width="1" height="1" fill="#E5DF6C" opacity="0.835294" />
<rect x="24" y="35" width="1" height="1" fill="#E8E37E" opacity="0.784314" />
<rect x="25" y="35" width="1" height="1" fill="#E8E25B" opacity="0.976471" />
<rect x="26" y="35" width="1" height="1" fill="#E8E25C" opacity="0.984314" />
<rect x="27" y="35" width="1" height="1" fill="#E8E25B" opacity="0.972549" />
<rect x="28" y="35" width="1" height="1" fill="#E8E25A" opacity="0.968627" />
<rect x="29" y="35" width="1" height="1" fill="#E9E45B" opacity="0.964706" />
<rect x="30" y="35" width="1" height="1" fill="#E8E357" opacity="0.996078" />
<rect x="31" y="35" width="1" height="1" fill="#E8E35C" opacity="0.980392" />
<rect x="32" y="35" width="1" height="1" fill="#E8E25B" opacity="0.984314" />
<rect x="33" y="35" width="1" height="1" fill="#E8E25A" opacity="0.980392" />
<rect x="34" y="35" width="1" height="1" fill="#E7E15A" opacity="0.984314" />
<rect x="35" y="35" width="2" height="1" fill="#E6E17D" opacity="0.800000" />
<rect x="24" y="36" width="1" height="1" fill="#E3DD6B" opacity="0.549020" />
<rect x="25" y="36" width="1" height="1" fill="#E6E06A" opacity="0.615686" />
<rect x="26" y="36" width="1" height="1" fill="#E7E26C" opacity="0.682353" />
<rect x="27" y="36" width="1" height="1" fill="#E9E36C" opacity="0.725490" />
<rect x="28" y="36" width="1" height="1" fill="#E8E37C" opacity="0.756863" />
<rect x="29" y="36" width="1" height="1" fill="#E8E37B" opacity="0.737255" />
<rect x="30" y="36" width="1" height="1" fill="#E8E25B" opacity="0.972549" />
<rect x="31" y="36" width="1" height="1" fill="#E5E07F" opacity="0.803922" />
<rect x="32" y="36" width="1" height="1" fill="#E6E17D" opacity="0.800000" />
<rect x="33" y="36" width="1" height="1" fill="#E4DE6E" opacity="0.760784" />
<rect x="34" y="36" width="1" height="1" fill="#E5DF65" opacity="0.701961" />
<rect x="27" y="37" width="1" height="1" fill="#F8F151" opacity="0.364706" />
<rect x="28" y="37" width="1" height="1" fill="#F7F064" opacity="0.454902" />
<rect x="29" y="37" width="1" height="1" fill="#ECE771" opacity="0.584314" />
<rect x="30" y="37" width="1" height="1" fill="#EAE459" opacity="0.960784" />
<rect x="31" y="37" width="1" height="1" fill="#EBE578" opacity="0.690196" />
<rect x="32" y="37" width="1" height="1" fill="#E6E176" opacity="0.635294" />
<rect x="29" y="38" width="1" height="1" fill="#F2EB5D" opacity="0.419608" />
<rect x="30" y="38" width="1" height="1" fill="#EAE458" opacity="0.945098" />
<rect x="31" y="38" width="1" height="1" fill="#EFE96E" opacity="0.545098" />
<rect x="32" y="38" width="1" height="1" fill="#F5EF6F" opacity="0.411765" />
<rect x="29" y="39" width="1" height="1" fill="#F3EB51" opacity="0.356863" />
<rect x="30" y="39" width="1" height="1" fill="#EAE457" opacity="0.941176" />
<rect x="31" y="39" width="1" height="1" fill="#F3EC65" opacity="0.447059" />
<rect x="29" y="40" width="1" height="1" fill="#EAE34B" opacity="0.541176" />
<rect x="30" y="40" width="1" height="1" fill="#EAE455" opacity="0.949020" />
<rect x="31" y="40" width="1" height="1" fill="#F0EA62" opacity="0.505882" />
<rect x="29" y="41" width="1" height="1" fill="#E3DD4C" opacity="0.666667" />
<rect x="30" y="41" width="1" height="2" fill="#E8E255" opacity="0.984314" />
<rect x="31" y="41" width="1" height="1" fill="#ECE661" opacity="0.654902" />
<rect x="29" y="42" width="1" height="1" fill="#E6E04D" opacity="0.596078" />
<rect x="31" y="42" width="1" height="1" fill="#ECE664" opacity="0.694118" />
<rect x="29" y="43" width="1" height="2" fill="#E9E24F" opacity="0.525490" />
<rect x="30" y="43" width="1" height="1" fill="#E8E255" opacity="0.980392" />
<rect x="31" y="43" width="1" height="1" fill="#EBE562" opacity="0.709804" />
<rect x="30" y="44" width="1" height="1" fill="#E7E04E" opacity="0.858824" />
<rect x="31" y="44" width="1" height="1" fill="#EAE462" opacity="0.741176" />
<rect x="29" y="45" width="1" height="1" fill="#E6E04E" opacity="0.486275" />
<rect x="30" y="45" width="1" height="1" fill="#E5DF4D" opacity="0.819608" />
<rect x="31" y="45" width="1" height="1" fill="#E8E261" opacity="0.831373" />
<rect x="29" y="46" width="1" height="1" fill="#E3DD4C" opacity="0.443137" />
<rect x="30" y="46" width="1" height="1" fill="#E3DD4C" opacity="0.776471" />
<rect x="31" y="46" width="1" height="1" fill="#E6E05F" opacity="0.905882" />
<rect x="29" y="47" width="1" height="2" fill="#E3DD4C" opacity="0.333333" />
<rect x="30" y="47" width="1" height="9" fill="#E3DD4C" opacity="0.666667" />
<rect x="31" y="47" width="1" height="1" fill="#E7E15C" opacity="0.894118" />
<rect x="32" y="47" width="1" height="1" fill="#ECE770" opacity="0.698039" />
<rect x="31" y="48" width="1" height="1" fill="#E8E259" opacity="0.878431" />
<rect x="32" y="48" width="1" height="1" fill="#EDE86D" opacity="0.682353" />
<rect x="31" y="49" width="1" height="1" fill="#E8E357" opacity="0.870588" />
<rect x="32" y="49" width="1" height="1" fill="#EEE96B" opacity="0.678431" />
<rect x="31" y="50" width="1" height="2" fill="#E9E356" opacity="0.870588" />
<rect x="32" y="50" width="1" height="1" fill="#EFE96A" opacity="0.682353" />
<rect x="32" y="51" width="1" height="1" fill="#EFE96A" opacity="0.690196" />
<rect x="31" y="52" width="1" height="1" fill="#E7E153" opacity="0.913725" />
<rect x="32" y="52" width="1" height="1" fill="#ECE766" opacity="0.741176" />
<rect x="31" y="53" width="1" height="1" fill="#E5DF4F" opacity="0.956863" />
<rect x="32" y="53" width="1" height="1" fill="#E8E35C" opacity="0.843137" />
<rect x="31" y="54" width="1" height="1" fill="#E4DE4F" opacity="0.964706" />
<rect x="32" y="54" width="1" height="1" fill="#E3DD4C" />
<rect x="31" y="55" width="1" height="1" fill="#E7E04D" opacity="0.913725" />
<rect x="32" y="55" width="1" height="1" fill="#E7E152" opacity="0.862745" />
<rect x="30" y="56" width="1" height="1" fill="#E7E048" opacity="0.568627" />
<rect x="31" y="56" width="1" height="1" fill="#ECE548" opacity="0.756863" />
<rect x="32" y="56" width="1" height="1" fill="#ECE554" opacity="0.705882" />
<rect x="30" y="57" width="1" height="1" fill="#EBE444" opacity="0.462745" />
<rect x="31" y="57" width="1" height="1" fill="#EFE741" opacity="0.576471" />
<rect x="32" y="57" width="1" height="1" fill="#F0E94F" opacity="0.415686" />
<rect x="30" y="58" width="1" height="1" fill="#EFE741" opacity="0.356863" />
<rect x="31" y="58" width="1" height="1" fill="#F0E93F" opacity="0.407843" />
<rect x="32" y="58" width="1" height="1" fill="#F4EC46" opacity="0.184314" />
</svg>