<?xml version="1.0" encoding="UTF-8" ?>
<svg version="1.1" width="31" height="26" xmlns="http://www.w3.org/2000/svg" shape-rendering="crispEdges">
<rect x="17" y="3" width="4" height="20" fill="#FFFFFF" />
<rect x="16" y="4" width="1" height="18" fill="#FFFFFF" />
<rect x="21" y="4" width="1" height="18" fill="#FFFFFF" />
<rect x="25" y="4" width="1" height="2" fill="#FFFFFF" />
<rect x="26" y="5" width="1" height="2" fill="#FFFFFF" />
<rect x="15" y="6" width="1" height="14" fill="#FFFFFF" />
<rect x="27" y="6" width="1" height="3" fill="#FFFFFF" />
<rect x="13" y="7" width="2" height="12" fill="#FFFFFF" />
<rect x="11" y="8" width="2" height="10" fill="#FFFFFF" />
<rect x="23" y="8" width="1" height="2" fill="#FFFFFF" />
<rect x="28" y="8" width="1" height="11" fill="#FFFFFF" />
<rect x="3" y="9" width="8" height="8" fill="#FFFFFF" />
<rect x="24" y="9" width="1" height="2" fill="#FFFFFF" />
<rect x="2" y="10" width="1" height="6" fill="#FFFFFF" />
<rect x="25" y="10" width="1" height="7" fill="#FFFFFF" />
<rect x="24" y="16" width="1" height="2" fill="#FFFFFF" />
<rect x="23" y="17" width="1" height="2" fill="#FFFFFF" />
<rect x="27" y="17" width="1" height="3" fill="#FFFFFF" />
<rect x="26" y="19" width="1" height="2" fill="#FFFFFF" />
<rect x="25" y="20" width="1" height="2" fill="#FFFFFF" />
</svg>