<?xml version="1.0" encoding="UTF-8" ?>
<svg version="1.1" width="550" height="250" xmlns="http://www.w3.org/2000/svg" shape-rendering="crispEdges">
<rect x="8" y="0" width="1" height="4" fill="#FFFFFF" />
<rect x="541" y="0" width="1" height="4" fill="#FFFFFF" />
<rect x="9" y="1" width="1" height="2" fill="#ABACB4" />
<rect x="540" y="1" width="1" height="2" fill="#ABACB4" />
<rect x="10" y="2" width="1" height="7" fill="#ABACB4" />
<rect x="539" y="2" width="1" height="7" fill="#ABACB4" />
<rect x="5" y="3" width="3" height="1" fill="#FFFFFF" />
<rect x="9" y="3" width="1" height="1" fill="#FFFFFF" />
<rect x="51" y="3" width="3" height="1" fill="#FFFFFF" />
<rect x="56" y="3" width="4" height="1" fill="#FFFFFF" />
<rect x="63" y="3" width="3" height="1" fill="#FFFFFF" />
<rect x="68" y="3" width="1" height="4" fill="#FFFFFF" />
<rect x="72" y="3" width="1" height="4" fill="#FFFFFF" />
<rect x="74" y="3" width="5" height="1" fill="#FFFFFF" />
<rect x="540" y="3" width="1" height="1" fill="#FFFFFF" />
<rect x="542" y="3" width="3" height="1" fill="#FFFFFF" />
<rect x="6" y="4" width="2" height="1" fill="#FFFFFF" />
<rect x="8" y="4" width="2" height="1" fill="#ABACB4" />
<rect x="11" y="4" width="32" height="2" fill="#FFFFFF" />
<rect x="50" y="4" width="1" height="4" fill="#FFFFFF" />
<rect x="54" y="4" width="1" height="4" fill="#FFFFFF" />
<rect x="56" y="4" width="1" height="4" fill="#FFFFFF" />
<rect x="60" y="4" width="1" height="1" fill="#FFFFFF" />
<rect x="62" y="4" width="1" height="3" fill="#FFFFFF" />
<rect x="66" y="4" width="1" height="3" fill="#FFFFFF" />
<rect x="76" y="4" width="1" height="4" fill="#FFFFFF" />
<rect x="86" y="4" width="453" height="2" fill="#FFFFFF" />
<rect x="540" y="4" width="2" height="1" fill="#ABACB4" />
<rect x="542" y="4" width="2" height="1" fill="#FFFFFF" />
<rect x="3" y="5" width="1" height="5" fill="#FFFFFF" />
<rect x="8" y="5" width="1" height="2" fill="#FFFFFF" />
<rect x="9" y="5" width="1" height="2" fill="#ABACB4" />
<rect x="57" y="5" width="3" height="1" fill="#FFFFFF" />
<rect x="540" y="5" width="1" height="2" fill="#ABACB4" />
<rect x="541" y="5" width="1" height="2" fill="#FFFFFF" />
<rect x="546" y="5" width="1" height="5" fill="#FFFFFF" />
<rect x="4" y="6" width="1" height="2" fill="#FFFFFF" />
<rect x="6" y="6" width="1" height="1" fill="#AAFFE6" />
<rect x="11" y="6" width="32" height="1" fill="#ABACB4" />
<rect x="51" y="6" width="3" height="1" fill="#FFFFFF" />
<rect x="60" y="6" width="1" height="1" fill="#FFFFFF" />
<rect x="86" y="6" width="33" height="1" fill="#ABACB4" />
<rect x="119" y="6" width="2" height="240" fill="#FFFFFF" />
<rect x="121" y="6" width="418" height="1" fill="#ABACB4" />
<rect x="543" y="6" width="1" height="1" fill="#AAFFE6" />
<rect x="545" y="6" width="1" height="2" fill="#FFFFFF" />
<rect x="8" y="7" width="1" height="2" fill="#ABACB4" />
<rect x="9" y="7" width="1" height="1" fill="#000000" />
<rect x="11" y="7" width="1" height="1" fill="#000000" />
<rect x="12" y="7" width="1" height="1" fill="#ABACB4" />
<rect x="13" y="7" width="30" height="236" fill="#000000" />
<rect x="57" y="7" width="3" height="1" fill="#FFFFFF" />
<rect x="63" y="7" width="3" height="1" fill="#FFFFFF" />
<rect x="69" y="7" width="3" height="1" fill="#FFFFFF" />
<rect x="86" y="7" width="32" height="236" fill="#000000" />
<rect x="118" y="7" width="1" height="237" fill="#ABACB4" />
<rect x="121" y="7" width="416" height="236" fill="#000000" />
<rect x="537" y="7" width="1" height="1" fill="#ABACB4" />
<rect x="538" y="7" width="1" height="1" fill="#000000" />
<rect x="540" y="7" width="1" height="1" fill="#000000" />
<rect x="541" y="7" width="1" height="2" fill="#ABACB4" />
<rect x="0" y="8" width="3" height="1" fill="#FFFFFF" />
<rect x="4" y="8" width="1" height="3" fill="#ABACB4" />
<rect x="5" y="8" width="2" height="1" fill="#FFFFFF" />
<rect x="7" y="8" width="1" height="1" fill="#ABACB4" />
<rect x="9" y="8" width="1" height="2" fill="#ABACB4" />
<rect x="11" y="8" width="1" height="1" fill="#FFFFFF" />
<rect x="12" y="8" width="1" height="234" fill="#000000" />
<rect x="43" y="8" width="43" height="235" fill="#000000" />
<rect x="537" y="8" width="1" height="234" fill="#000000" />
<rect x="538" y="8" width="1" height="1" fill="#FFFFFF" />
<rect x="540" y="8" width="1" height="2" fill="#ABACB4" />
<rect x="542" y="8" width="1" height="1" fill="#ABACB4" />
<rect x="543" y="8" width="2" height="1" fill="#FFFFFF" />
<rect x="545" y="8" width="1" height="3" fill="#ABACB4" />
<rect x="547" y="8" width="3" height="1" fill="#FFFFFF" />
<rect x="1" y="9" width="2" height="1" fill="#ABACB4" />
<rect x="5" y="9" width="2" height="2" fill="#ABACB4" />
<rect x="7" y="9" width="2" height="1" fill="#000000" />
<rect x="10" y="9" width="2" height="232" fill="#000000" />
<rect x="538" y="9" width="2" height="232" fill="#000000" />
<rect x="541" y="9" width="2" height="1" fill="#000000" />
<rect x="543" y="9" width="2" height="2" fill="#ABACB4" />
<rect x="547" y="9" width="2" height="1" fill="#ABACB4" />
<rect x="2" y="10" width="2" height="1" fill="#ABACB4" />
<rect x="7" y="10" width="2" height="1" fill="#ABACB4" />
<rect x="9" y="10" width="1" height="230" fill="#000000" />
<rect x="540" y="10" width="1" height="230" fill="#000000" />
<rect x="541" y="10" width="2" height="1" fill="#ABACB4" />
<rect x="546" y="10" width="2" height="1" fill="#ABACB4" />
<rect x="4" y="11" width="2" height="228" fill="#FFFFFF" />
<rect x="6" y="11" width="1" height="230" fill="#ABACB4" />
<rect x="7" y="11" width="1" height="1" fill="#000000" />
<rect x="8" y="11" width="1" height="1" fill="#FFFFFF" />
<rect x="541" y="11" width="1" height="1" fill="#FFFFFF" />
<rect x="542" y="11" width="1" height="1" fill="#000000" />
<rect x="543" y="11" width="1" height="230" fill="#ABACB4" />
<rect x="544" y="11" width="2" height="228" fill="#FFFFFF" />
<rect x="7" y="12" width="1" height="1" fill="#ABACB4" />
<rect x="8" y="12" width="1" height="226" fill="#000000" />
<rect x="541" y="12" width="1" height="226" fill="#000000" />
<rect x="542" y="12" width="1" height="1" fill="#ABACB4" />
<rect x="7" y="13" width="1" height="224" fill="#000000" />
<rect x="542" y="13" width="1" height="224" fill="#000000" />
<rect x="7" y="237" width="1" height="1" fill="#ABACB4" />
<rect x="542" y="237" width="1" height="1" fill="#ABACB4" />
<rect x="7" y="238" width="1" height="1" fill="#000000" />
<rect x="8" y="238" width="1" height="1" fill="#FFFFFF" />
<rect x="541" y="238" width="1" height="1" fill="#FFFFFF" />
<rect x="542" y="238" width="1" height="1" fill="#000000" />
<rect x="2" y="239" width="4" height="1" fill="#ABACB4" />
<rect x="7" y="239" width="2" height="1" fill="#ABACB4" />
<rect x="541" y="239" width="2" height="1" fill="#ABACB4" />
<rect x="544" y="239" width="4" height="1" fill="#ABACB4" />
<rect x="1" y="240" width="2" height="1" fill="#ABACB4" />
<rect x="3" y="240" width="1" height="5" fill="#FFFFFF" />
<rect x="4" y="240" width="2" height="1" fill="#ABACB4" />
<rect x="7" y="240" width="2" height="1" fill="#000000" />
<rect x="9" y="240" width="1" height="2" fill="#ABACB4" />
<rect x="540" y="240" width="1" height="2" fill="#ABACB4" />
<rect x="541" y="240" width="2" height="1" fill="#000000" />
<rect x="544" y="240" width="2" height="1" fill="#ABACB4" />
<rect x="546" y="240" width="1" height="5" fill="#FFFFFF" />
<rect x="547" y="240" width="2" height="1" fill="#ABACB4" />
<rect x="0" y="241" width="3" height="1" fill="#FFFFFF" />
<rect x="4" y="241" width="1" height="1" fill="#ABACB4" />
<rect x="5" y="241" width="2" height="1" fill="#FFFFFF" />
<rect x="7" y="241" width="2" height="1" fill="#ABACB4" />
<rect x="10" y="241" width="1" height="7" fill="#ABACB4" />
<rect x="11" y="241" width="1" height="1" fill="#FFFFFF" />
<rect x="538" y="241" width="1" height="1" fill="#FFFFFF" />
<rect x="539" y="241" width="1" height="7" fill="#ABACB4" />
<rect x="541" y="241" width="2" height="1" fill="#ABACB4" />
<rect x="543" y="241" width="2" height="1" fill="#FFFFFF" />
<rect x="545" y="241" width="1" height="1" fill="#ABACB4" />
<rect x="547" y="241" width="3" height="1" fill="#FFFFFF" />
<rect x="4" y="242" width="1" height="2" fill="#FFFFFF" />
<rect x="8" y="242" width="1" height="1" fill="#ABACB4" />
<rect x="9" y="242" width="1" height="1" fill="#000000" />
<rect x="11" y="242" width="1" height="1" fill="#000000" />
<rect x="12" y="242" width="1" height="2" fill="#ABACB4" />
<rect x="537" y="242" width="1" height="2" fill="#ABACB4" />
<rect x="538" y="242" width="1" height="1" fill="#000000" />
<rect x="540" y="242" width="1" height="1" fill="#000000" />
<rect x="541" y="242" width="1" height="1" fill="#ABACB4" />
<rect x="545" y="242" width="1" height="2" fill="#FFFFFF" />
<rect x="6" y="243" width="1" height="1" fill="#AAFFE6" />
<rect x="8" y="243" width="1" height="2" fill="#FFFFFF" />
<rect x="9" y="243" width="1" height="3" fill="#ABACB4" />
<rect x="11" y="243" width="1" height="1" fill="#ABACB4" />
<rect x="13" y="243" width="105" height="1" fill="#ABACB4" />
<rect x="121" y="243" width="416" height="1" fill="#ABACB4" />
<rect x="538" y="243" width="1" height="1" fill="#ABACB4" />
<rect x="540" y="243" width="1" height="3" fill="#ABACB4" />
<rect x="541" y="243" width="1" height="2" fill="#FFFFFF" />
<rect x="543" y="243" width="1" height="1" fill="#AAFFE6" />
<rect x="11" y="244" width="108" height="2" fill="#FFFFFF" />
<rect x="121" y="244" width="418" height="2" fill="#FFFFFF" />
<rect x="6" y="245" width="2" height="2" fill="#FFFFFF" />
<rect x="8" y="245" width="1" height="1" fill="#ABACB4" />
<rect x="541" y="245" width="1" height="1" fill="#ABACB4" />
<rect x="542" y="245" width="2" height="2" fill="#FFFFFF" />
<rect x="5" y="246" width="1" height="1" fill="#FFFFFF" />
<rect x="8" y="246" width="2" height="1" fill="#FFFFFF" />
<rect x="540" y="246" width="2" height="1" fill="#FFFFFF" />
<rect x="544" y="246" width="1" height="1" fill="#FFFFFF" />
<rect x="8" y="247" width="1" height="3" fill="#FFFFFF" />
<rect x="9" y="247" width="1" height="2" fill="#ABACB4" />
<rect x="540" y="247" width="1" height="2" fill="#ABACB4" />
<rect x="541" y="247" width="1" height="3" fill="#FFFFFF" />
</svg>