<?xml version="1.0" encoding="UTF-8" ?>
<svg version="1.1" width="31" height="32" xmlns="http://www.w3.org/2000/svg" shape-rendering="crispEdges">
<rect x="1" y="0" width="29" height="2" fill="#FFFF00" />
<rect x="0" y="1" width="1" height="24" fill="#FFFF00" />
<rect x="30" y="1" width="1" height="24" fill="#FFFF00" />
<rect x="1" y="2" width="1" height="24" fill="#FFFF00" />
<rect x="2" y="2" width="27" height="2" fill="#000000" />
<rect x="29" y="2" width="1" height="24" fill="#FFFF00" />
<rect x="2" y="4" width="13" height="1" fill="#000000" />
<rect x="15" y="4" width="1" height="5" fill="#FFFF00" />
<rect x="16" y="4" width="13" height="1" fill="#000000" />
<rect x="2" y="5" width="12" height="1" fill="#000000" />
<rect x="14" y="5" width="1" height="4" fill="#FFFF00" />
<rect x="16" y="5" width="1" height="4" fill="#FFFF00" />
<rect x="17" y="5" width="12" height="1" fill="#000000" />
<rect x="2" y="6" width="11" height="1" fill="#000000" />
<rect x="13" y="6" width="1" height="3" fill="#FFFF00" />
<rect x="17" y="6" width="1" height="3" fill="#FFFF00" />
<rect x="18" y="6" width="11" height="1" fill="#000000" />
<rect x="2" y="7" width="9" height="2" fill="#000000" />
<rect x="11" y="7" width="2" height="1" fill="#FFFF00" />
<rect x="18" y="7" width="2" height="1" fill="#FFFF00" />
<rect x="20" y="7" width="9" height="2" fill="#000000" />
<rect x="11" y="8" width="2" height="1" fill="#000000" />
<rect x="18" y="8" width="2" height="1" fill="#000000" />
<rect x="2" y="9" width="7" height="1" fill="#000000" />
<rect x="9" y="9" width="4" height="4" fill="#FFFF00" />
<rect x="13" y="9" width="5" height="1" fill="#000000" />
<rect x="18" y="9" width="4" height="4" fill="#FFFF00" />
<rect x="22" y="9" width="7" height="1" fill="#000000" />
<rect x="2" y="10" width="6" height="2" fill="#000000" />
<rect x="8" y="10" width="1" height="5" fill="#FFFF00" />
<rect x="13" y="10" width="5" height="2" fill="#FFFF00" />
<rect x="22" y="10" width="1" height="5" fill="#FFFF00" />
<rect x="23" y="10" width="6" height="2" fill="#000000" />
<rect x="2" y="12" width="5" height="1" fill="#000000" />
<rect x="7" y="12" width="1" height="3" fill="#FFFF00" />
<rect x="13" y="12" width="5" height="1" fill="#000000" />
<rect x="23" y="12" width="1" height="3" fill="#FFFF00" />
<rect x="24" y="12" width="5" height="1" fill="#000000" />
<rect x="2" y="13" width="4" height="1" fill="#000000" />
<rect x="6" y="13" width="1" height="2" fill="#FFFF00" />
<rect x="9" y="13" width="3" height="1" fill="#FFFF00" />
<rect x="12" y="13" width="2" height="1" fill="#000000" />
<rect x="14" y="13" width="3" height="3" fill="#FFFF00" />
<rect x="17" y="13" width="2" height="1" fill="#000000" />
<rect x="19" y="13" width="3" height="1" fill="#FFFF00" />
<rect x="24" y="13" width="1" height="2" fill="#FFFF00" />
<rect x="25" y="13" width="4" height="1" fill="#000000" />
<rect x="2" y="14" width="3" height="10" fill="#000000" />
<rect x="5" y="14" width="1" height="1" fill="#FFFF00" />
<rect x="9" y="14" width="2" height="1" fill="#FFFF00" />
<rect x="11" y="14" width="2" height="1" fill="#000000" />
<rect x="13" y="14" width="1" height="8" fill="#FFFF00" />
<rect x="17" y="14" width="1" height="8" fill="#FFFF00" />
<rect x="18" y="14" width="2" height="1" fill="#000000" />
<rect x="20" y="14" width="2" height="1" fill="#FFFF00" />
<rect x="25" y="14" width="1" height="1" fill="#FFFF00" />
<rect x="26" y="14" width="3" height="2" fill="#000000" />
<rect x="5" y="15" width="7" height="1" fill="#000000" />
<rect x="12" y="15" width="1" height="7" fill="#FFFF00" />
<rect x="18" y="15" width="1" height="7" fill="#FFFF00" />
<rect x="19" y="15" width="7" height="1" fill="#000000" />
<rect x="5" y="16" width="2" height="8" fill="#000000" />
<rect x="7" y="16" width="4" height="2" fill="#FFFF00" />
<rect x="11" y="16" width="1" height="8" fill="#000000" />
<rect x="14" y="16" width="3" height="8" fill="#000000" />
<rect x="19" y="16" width="1" height="8" fill="#000000" />
<rect x="20" y="16" width="4" height="2" fill="#FFFF00" />
<rect x="24" y="16" width="3" height="8" fill="#000000" />
<rect x="27" y="16" width="1" height="1" fill="#000100" />
<rect x="28" y="16" width="1" height="8" fill="#000000" />
<rect x="27" y="17" width="1" height="7" fill="#000000" />
<rect x="7" y="18" width="1" height="4" fill="#FFFF00" />
<rect x="8" y="18" width="2" height="2" fill="#000000" />
<rect x="10" y="18" width="1" height="4" fill="#FFFF00" />
<rect x="20" y="18" width="1" height="4" fill="#FFFF00" />
<rect x="21" y="18" width="2" height="2" fill="#000000" />
<rect x="23" y="18" width="1" height="4" fill="#FFFF00" />
<rect x="8" y="20" width="2" height="2" fill="#FFFF00" />
<rect x="21" y="20" width="2" height="2" fill="#FFFF00" />
<rect x="7" y="22" width="4" height="2" fill="#000000" />
<rect x="12" y="22" width="2" height="2" fill="#000000" />
<rect x="17" y="22" width="2" height="2" fill="#000000" />
<rect x="20" y="22" width="4" height="2" fill="#000000" />
<rect x="2" y="24" width="27" height="2" fill="#FFFF00" />
<rect x="6" y="27" width="1" height="5" fill="#FFFF00" />
<rect x="9" y="27" width="1" height="5" fill="#FFFF00" />
<rect x="11" y="27" width="4" height="1" fill="#FFFF00" />
<rect x="16" y="27" width="2" height="2" fill="#FFFF00" />
<rect x="19" y="27" width="2" height="2" fill="#FFFF00" />
<rect x="22" y="27" width="4" height="1" fill="#FFFF00" />
<rect x="11" y="28" width="1" height="4" fill="#FFFF00" />
<rect x="14" y="28" width="1" height="4" fill="#FFFF00" />
<rect x="22" y="28" width="1" height="4" fill="#FFFF00" />
<rect x="7" y="29" width="2" height="1" fill="#FFFF00" />
<rect x="16" y="29" width="1" height="3" fill="#FFFF00" />
<rect x="18" y="29" width="1" height="2" fill="#FFFF00" />
<rect x="20" y="29" width="1" height="3" fill="#FFFF00" />
<rect x="23" y="29" width="2" height="1" fill="#FFFF00" />
<rect x="12" y="31" width="2" height="1" fill="#FFFF00" />
<rect x="23" y="31" width="3" height="1" fill="#FFFF00" />
</svg>