<?xml version="1.0" encoding="UTF-8" ?>
<svg version="1.1" width="31" height="26" xmlns="http://www.w3.org/2000/svg" shape-rendering="crispEdges">
<rect x="21" y="3" width="4" height="2" fill="#FFFFFF" />
<rect x="20" y="4" width="1" height="7" fill="#FFFFFF" />
<rect x="21" y="5" width="3" height="1" fill="#FFFFFF" />
<rect x="19" y="6" width="1" height="7" fill="#FFFFFF" />
<rect x="21" y="6" width="2" height="2" fill="#FFFFFF" />
<rect x="17" y="7" width="2" height="7" fill="#FFFFFF" />
<rect x="16" y="8" width="1" height="8" fill="#FFFFFF" />
<rect x="21" y="8" width="1" height="2" fill="#FFFFFF" />
<rect x="25" y="8" width="1" height="14" fill="#FFFFFF" />
<rect x="7" y="9" width="9" height="8" fill="#FFFFFF" />
<rect x="6" y="10" width="1" height="6" fill="#FFFFFF" />
<rect x="24" y="10" width="1" height="13" fill="#FFFFFF" />
<rect x="23" y="11" width="1" height="12" fill="#FFFFFF" />
<rect x="22" y="13" width="1" height="10" fill="#FFFFFF" />
<rect x="17" y="14" width="1" height="1" fill="#FFFFFF" />
<rect x="21" y="15" width="1" height="8" fill="#FFFFFF" />
<rect x="20" y="16" width="1" height="6" fill="#FFFFFF" />
<rect x="19" y="17" width="1" height="3" fill="#FFFFFF" />
<rect x="18" y="18" width="1" height="1" fill="#FFFFFF" />
</svg>