<?xml version="1.0" encoding="UTF-8" ?>
<svg version="1.1" width="31" height="32" xmlns="http://www.w3.org/2000/svg" shape-rendering="crispEdges">
<rect x="1" y="0" width="29" height="2" fill="#FFFF00" />
<rect x="0" y="1" width="1" height="24" fill="#FFFF00" />
<rect x="30" y="1" width="1" height="24" fill="#FFFF00" />
<rect x="1" y="2" width="1" height="24" fill="#FFFF00" />
<rect x="2" y="2" width="27" height="3" fill="#000000" />
<rect x="29" y="2" width="1" height="24" fill="#FFFF00" />
<rect x="2" y="5" width="3" height="1" fill="#000000" />
<rect x="5" y="5" width="11" height="2" fill="#FFFF00" />
<rect x="16" y="5" width="13" height="1" fill="#000000" />
<rect x="2" y="6" width="2" height="18" fill="#000000" />
<rect x="4" y="6" width="1" height="15" fill="#FFFF00" />
<rect x="16" y="6" width="1" height="1" fill="#FFFF00" />
<rect x="17" y="6" width="12" height="2" fill="#000000" />
<rect x="5" y="7" width="1" height="10" fill="#FFFF00" />
<rect x="6" y="7" width="11" height="1" fill="#000000" />
<rect x="6" y="8" width="18" height="2" fill="#FFFF00" />
<rect x="24" y="8" width="5" height="1" fill="#000000" />
<rect x="24" y="9" width="1" height="1" fill="#FFFF00" />
<rect x="25" y="9" width="4" height="3" fill="#000000" />
<rect x="6" y="10" width="3" height="1" fill="#FFFF00" />
<rect x="9" y="10" width="16" height="2" fill="#000000" />
<rect x="6" y="11" width="2" height="2" fill="#FFFF00" />
<rect x="8" y="11" width="1" height="4" fill="#000000" />
<rect x="9" y="12" width="1" height="1" fill="#000000" />
<rect x="10" y="12" width="17" height="2" fill="#FFFF00" />
<rect x="27" y="12" width="2" height="12" fill="#000000" />
<rect x="6" y="13" width="1" height="2" fill="#FFFF00" />
<rect x="7" y="13" width="1" height="4" fill="#000000" />
<rect x="9" y="13" width="1" height="8" fill="#FFFF00" />
<rect x="10" y="14" width="16" height="3" fill="#FFFF00" />
<rect x="26" y="14" width="1" height="10" fill="#000000" />
<rect x="6" y="15" width="1" height="4" fill="#000000" />
<rect x="8" y="15" width="1" height="6" fill="#FFFF00" />
<rect x="5" y="17" width="1" height="7" fill="#000000" />
<rect x="7" y="17" width="1" height="4" fill="#FFFF00" />
<rect x="10" y="17" width="15" height="2" fill="#FFFF00" />
<rect x="25" y="17" width="1" height="7" fill="#000000" />
<rect x="6" y="19" width="1" height="2" fill="#FFFF00" />
<rect x="10" y="19" width="14" height="2" fill="#FFFF00" />
<rect x="24" y="19" width="1" height="5" fill="#000000" />
<rect x="4" y="21" width="1" height="3" fill="#000000" />
<rect x="6" y="21" width="18" height="3" fill="#000000" />
<rect x="2" y="24" width="27" height="2" fill="#FFFF00" />
<rect x="4" y="27" width="4" height="1" fill="#FFFF00" />
<rect x="9" y="27" width="4" height="1" fill="#FFFF00" />
<rect x="14" y="27" width="4" height="1" fill="#FFFF00" />
<rect x="19" y="27" width="4" height="1" fill="#FFFF00" />
<rect x="24" y="27" width="4" height="1" fill="#FFFF00" />
<rect x="4" y="28" width="1" height="4" fill="#FFFF00" />
<rect x="7" y="28" width="1" height="2" fill="#FFFF00" />
<rect x="9" y="28" width="1" height="4" fill="#FFFF00" />
<rect x="12" y="28" width="1" height="1" fill="#FFFF00" />
<rect x="14" y="28" width="1" height="4" fill="#FFFF00" />
<rect x="17" y="28" width="1" height="4" fill="#FFFF00" />
<rect x="21" y="28" width="1" height="4" fill="#FFFF00" />
<rect x="24" y="28" width="1" height="2" fill="#FFFF00" />
<rect x="5" y="29" width="2" height="1" fill="#FFFF00" />
<rect x="10" y="29" width="2" height="1" fill="#FFFF00" />
<rect x="25" y="29" width="3" height="1" fill="#FFFF00" />
<rect x="12" y="30" width="1" height="2" fill="#FFFF00" />
<rect x="19" y="30" width="1" height="2" fill="#FFFF00" />
<rect x="27" y="30" width="1" height="2" fill="#FFFF00" />
<rect x="15" y="31" width="2" height="1" fill="#FFFF00" />
<rect x="20" y="31" width="1" height="1" fill="#FFFF00" />
<rect x="24" y="31" width="3" height="1" fill="#FFFF00" />
</svg>